<svg width="10" height="8" viewBox="0 0 10 8" fill="none" xmlns="http://www.w3.org/2000/svg">
<path d="M0.187248 4.03914C0.182978 3.82596 0.337866 3.64661 0.542843 3.61461L0.599905 3.60962L8.00213 3.4617L5.27459 0.851985C5.1065 0.691194 5.10059 0.424586 5.26138 0.256499C5.40755 0.103694 5.64118 0.0849146 5.80873 0.203568L5.85686 0.24329L9.3214 3.55746C9.34356 3.57866 9.3629 3.60169 9.3794 3.62609C9.38408 3.63344 9.38883 3.64096 9.39335 3.64864C9.3975 3.65521 9.40127 3.66205 9.40483 3.66897C9.40979 3.67904 9.41464 3.68946 9.41907 3.70009C9.42267 3.70829 9.42569 3.71627 9.42846 3.72432C9.43176 3.7343 9.43499 3.74495 9.4378 3.75576C9.43988 3.76331 9.44156 3.77059 9.44303 3.77789C9.44513 3.78876 9.44695 3.80002 9.44831 3.81142C9.44947 3.82012 9.45023 3.82874 9.45073 3.83737C9.45092 3.84261 9.45114 3.84809 9.45125 3.8536L9.45136 3.86992C9.45121 3.87819 9.45081 3.88646 9.45017 3.89471L9.45125 3.8536C9.45178 3.88017 9.44984 3.90622 9.44564 3.93152C9.44467 3.93757 9.44349 3.94377 9.44217 3.94996C9.43943 3.96269 9.43622 3.97497 9.43248 3.98702C9.43065 3.993 9.4285 3.9994 9.42619 4.00575C9.42153 4.01852 9.41642 4.03071 9.41077 4.04259C9.40815 4.04818 9.4052 4.05403 9.40211 4.05983C9.39704 4.06929 9.39179 4.07828 9.38623 4.08706C9.38231 4.09327 9.37796 4.09975 9.37341 4.10612L9.36986 4.11105C9.35882 4.1261 9.34679 4.14039 9.33388 4.15383L9.33338 4.15423L6.00433 7.60503C5.84283 7.77243 5.5762 7.77722 5.40879 7.61572C5.25661 7.4689 5.23882 7.2352 5.35818 7.06815L5.3981 7.02018L8.01787 4.30391L0.616773 4.4518C0.384211 4.45646 0.191906 4.2717 0.187248 4.03914Z" fill="white"/>
</svg>
