<svg width="39" height="45" viewBox="0 0 39 45" fill="none" xmlns="http://www.w3.org/2000/svg">
<g clip-path="url(#clip0_74_393)">
<path d="M12.5013 1.9502V3.5752H10.0638C8.71814 3.5752 7.62634 4.66699 7.62634 6.0127V8.4502H30.3763V6.0127C30.3763 4.66699 29.2845 3.5752 27.9388 3.5752H25.5013V1.9502C25.5013 1.05137 24.7752 0.325195 23.8763 0.325195C22.9775 0.325195 22.2513 1.05137 22.2513 1.9502V3.5752H15.7513V1.9502C15.7513 1.05137 15.0252 0.325195 14.1263 0.325195C13.2275 0.325195 12.5013 1.05137 12.5013 1.9502ZM30.3763 10.0752H7.62634V23.8877C7.62634 25.2334 8.71814 26.3252 10.0638 26.3252H27.9388C29.2845 26.3252 30.3763 25.2334 30.3763 23.8877V10.0752ZM14.1263 14.9502C14.1263 15.3812 13.9551 15.7945 13.6504 16.0992C13.3456 16.404 12.9323 16.5752 12.5013 16.5752C12.0704 16.5752 11.657 16.404 11.3523 16.0992C11.0475 15.7945 10.8763 15.3812 10.8763 14.9502C10.8763 14.5192 11.0475 14.1059 11.3523 13.8011C11.657 13.4964 12.0704 13.3252 12.5013 13.3252C12.9323 13.3252 13.3456 13.4964 13.6504 13.8011C13.9551 14.1059 14.1263 14.5192 14.1263 14.9502ZM25.5013 23.0752C25.0704 23.0752 24.657 22.904 24.3523 22.5992C24.0475 22.2945 23.8763 21.8812 23.8763 21.4502C23.8763 21.0192 24.0475 20.6059 24.3523 20.3011C24.657 19.9964 25.0704 19.8252 25.5013 19.8252C25.9323 19.8252 26.3456 19.9964 26.6504 20.3011C26.9551 20.6059 27.1263 21.0192 27.1263 21.4502C27.1263 21.8812 26.9551 22.2945 26.6504 22.5992C26.3456 22.904 25.9323 23.0752 25.5013 23.0752ZM17.3763 14.9502C17.3763 14.2748 17.9197 13.7314 18.5951 13.7314H25.9076C26.583 13.7314 27.1263 14.2748 27.1263 14.9502C27.1263 15.6256 26.583 16.1689 25.9076 16.1689H18.5951C17.9197 16.1689 17.3763 15.6256 17.3763 14.9502ZM19.4076 20.2314C20.083 20.2314 20.6263 20.7748 20.6263 21.4502C20.6263 22.1256 20.083 22.6689 19.4076 22.6689H12.0951C11.4197 22.6689 10.8763 22.1256 10.8763 21.4502C10.8763 20.7748 11.4197 20.2314 12.0951 20.2314H19.4076Z" fill="white"/>
</g>
<path d="M3.88222 41.4004C3.24908 41.4004 2.70684 41.2656 2.2555 40.9961C1.80416 40.7203 1.45625 40.3285 1.21177 39.8207C0.97356 39.313 0.854456 38.708 0.854456 38.0059C0.854456 37.3101 0.97356 36.7083 1.21177 36.2006C1.45625 35.6928 1.80416 35.3041 2.2555 35.0346C2.70684 34.7588 3.24908 34.6209 3.88222 34.6209C4.33983 34.6209 4.75983 34.6961 5.14222 34.8465C5.53087 34.9907 5.85998 35.2039 6.12953 35.4859L5.87565 35.9655C5.58102 35.6771 5.27386 35.4703 4.95416 35.3449C4.64072 35.2195 4.28655 35.1568 3.89162 35.1568C3.11431 35.1568 2.51565 35.4076 2.09565 35.9091C1.68192 36.4043 1.47505 37.1033 1.47505 38.0059C1.47505 38.9149 1.68192 39.6201 2.09565 40.1216C2.51565 40.6168 3.11431 40.8644 3.89162 40.8644C4.28655 40.8644 4.64072 40.8018 4.95416 40.6764C5.27386 40.551 5.58102 40.3442 5.87565 40.0558L6.12953 40.5353C5.85998 40.8174 5.53087 41.0337 5.14222 41.1842C4.75983 41.3283 4.33983 41.4004 3.88222 41.4004ZM8.5677 41.4004C8.26053 41.4004 7.98471 41.3409 7.74023 41.2218C7.50202 41.1027 7.31083 40.9397 7.16665 40.7328C7.02874 40.5259 6.95978 40.294 6.95978 40.037C6.95978 39.6985 7.04441 39.4352 7.21367 39.2471C7.38292 39.0528 7.66814 38.9149 8.06934 38.8334C8.47053 38.7519 9.02217 38.7112 9.72426 38.7112H10.0158V38.3727C10.0158 37.9527 9.93113 37.6486 9.76187 37.4606C9.59262 37.2662 9.32307 37.1691 8.95322 37.1691C8.6774 37.1691 8.41098 37.2098 8.15396 37.2913C7.90322 37.3728 7.64307 37.5013 7.37352 37.6768L7.14784 37.2349C7.38605 37.0656 7.66814 36.9309 7.99411 36.8306C8.32008 36.7303 8.63665 36.6801 8.94381 36.6801C9.49546 36.6801 9.90292 36.8212 10.1662 37.1033C10.4358 37.3853 10.5705 37.8179 10.5705 38.4009V41.3252H10.0252V40.5071C9.89979 40.7892 9.70859 41.0086 9.45158 41.1653C9.20083 41.3221 8.9062 41.4004 8.5677 41.4004ZM8.64292 40.9397C8.91247 40.9397 9.14755 40.877 9.34814 40.7516C9.55501 40.62 9.71799 40.4413 9.8371 40.2156C9.9562 39.99 10.0158 39.733 10.0158 39.4446V39.1343H9.73367C9.16949 39.1343 8.72755 39.1594 8.40784 39.2095C8.09441 39.2597 7.87501 39.3474 7.74964 39.4728C7.62426 39.5982 7.56158 39.7706 7.56158 39.99C7.56158 40.2721 7.65874 40.5009 7.85307 40.6764C8.0474 40.8519 8.31068 40.9397 8.64292 40.9397ZM13.3958 41.4004C12.9695 41.4004 12.6404 41.2719 12.4084 41.0149C12.1828 40.7516 12.0699 40.3755 12.0699 39.8865L12.0699 34.6961H12.6435L12.6435 39.8207C12.6435 40.5416 12.9256 40.9021 13.4898 40.9021C13.6465 40.9021 13.7907 40.8833 13.9223 40.8456L13.9035 41.344C13.7217 41.3816 13.5525 41.4004 13.3958 41.4004ZM16.6894 41.4004C15.9873 41.4004 15.4325 41.1936 15.025 40.7798C14.6239 40.3598 14.4233 39.7862 14.4233 39.0591C14.4233 38.5889 14.5142 38.1752 14.6959 37.8179C14.8777 37.4606 15.1285 37.1816 15.4482 36.981C15.7742 36.7804 16.1471 36.6801 16.5671 36.6801C17.1752 36.6801 17.6485 36.8776 17.987 37.2725C18.3255 37.6674 18.4947 38.2097 18.4947 38.8992V39.1625H14.9874C15.0062 39.7267 15.1598 40.1624 15.4482 40.4695C15.7428 40.7704 16.1503 40.9209 16.6706 40.9209C16.9527 40.9209 17.2159 40.877 17.4604 40.7892C17.7112 40.7015 17.9556 40.5542 18.1939 40.3473L18.4195 40.7798C18.2189 40.9742 17.9619 41.1277 17.6485 41.2406C17.335 41.3471 17.0153 41.4004 16.6894 41.4004ZM16.5765 37.1409C16.1001 37.1409 15.7271 37.2913 15.4576 37.5922C15.1943 37.8868 15.0407 38.2692 14.9968 38.7394H17.9776C17.965 38.2379 17.8397 37.8461 17.6015 37.564C17.3633 37.2819 17.0216 37.1409 16.5765 37.1409ZM19.664 41.3252V36.7647H20.2281V37.5828C20.3786 37.2819 20.5948 37.0562 20.8769 36.9058C21.159 36.7553 21.4725 36.6801 21.8172 36.6801C22.9017 36.6801 23.444 37.2694 23.444 38.4479V41.3252H22.8704V38.4949C22.8704 38.0436 22.7795 37.7113 22.5977 37.4982C22.4159 37.285 22.1275 37.1785 21.7326 37.1785C21.2813 37.1785 20.9177 37.3195 20.6419 37.6016C20.3723 37.8774 20.2375 38.2504 20.2375 38.7206V41.3252H19.664ZM26.6651 41.4004C26.2514 41.4004 25.8941 41.3064 25.5932 41.1183C25.2923 40.924 25.0572 40.6513 24.888 40.3003C24.725 39.943 24.6435 39.523 24.6435 39.0403C24.6435 38.3194 24.8253 37.7458 25.1889 37.3195C25.5525 36.8933 26.0445 36.6801 26.6651 36.6801C27.0287 36.6801 27.3484 36.7647 27.6242 36.934C27.9063 37.097 28.1163 37.3227 28.2542 37.611V34.6961H28.8278V41.3252H28.2636V40.4601C28.1257 40.7547 27.9157 40.9867 27.6336 41.1559C27.3578 41.3189 27.035 41.4004 26.6651 41.4004ZM26.7404 40.9209C27.2042 40.9209 27.5741 40.7579 27.8499 40.4319C28.1257 40.0997 28.2636 39.6358 28.2636 39.0403C28.2636 38.4447 28.1257 37.984 27.8499 37.658C27.5741 37.3321 27.2042 37.1691 26.7404 37.1691C26.2765 37.1691 25.9066 37.3321 25.6308 37.658C25.3613 37.984 25.2265 38.4447 25.2265 39.0403C25.2265 39.6358 25.3613 40.0997 25.6308 40.4319C25.9066 40.7579 26.2765 40.9209 26.7404 40.9209ZM32.3182 41.4004C31.6161 41.4004 31.0613 41.1936 30.6538 40.7798C30.2526 40.3598 30.052 39.7862 30.052 39.0591C30.052 38.5889 30.1429 38.1752 30.3247 37.8179C30.5065 37.4606 30.7573 37.1816 31.077 36.981C31.4029 36.7804 31.7759 36.6801 32.1959 36.6801C32.804 36.6801 33.2773 36.8776 33.6158 37.2725C33.9543 37.6674 34.1235 38.2097 34.1235 38.8992V39.1625H30.6162C30.635 39.7267 30.7886 40.1624 31.077 40.4695C31.3716 40.7704 31.7791 40.9209 32.2994 40.9209C32.5815 40.9209 32.8447 40.877 33.0892 40.7892C33.34 40.7015 33.5844 40.5542 33.8226 40.3473L34.0483 40.7798C33.8477 40.9742 33.5907 41.1277 33.2773 41.2406C32.9638 41.3471 32.6441 41.4004 32.3182 41.4004ZM32.2053 37.1409C31.7289 37.1409 31.3559 37.2913 31.0864 37.5922C30.8231 37.8868 30.6695 38.2692 30.6256 38.7394H33.6064C33.5938 38.2379 33.4685 37.8461 33.2303 37.564C32.992 37.2819 32.6504 37.1409 32.2053 37.1409ZM35.2927 41.3252V36.7647H35.8569V37.5922C35.9886 37.3039 36.1798 37.0844 36.4305 36.934C36.6813 36.7836 37.001 36.6958 37.3896 36.6707L37.6247 36.6519L37.6811 37.1503L37.2768 37.1973C36.8317 37.2349 36.4869 37.3822 36.2424 37.6392C35.998 37.89 35.8757 38.2285 35.8757 38.6547V41.3252H35.2927Z" fill="white"/>
<defs>
<clipPath id="clip0_74_393">
<rect width="26" height="26" fill="white" transform="translate(6.00134 0.325195)"/>
</clipPath>
</defs>
</svg>
