<svg width="37" height="44" viewBox="0 0 37 44" fill="none" xmlns="http://www.w3.org/2000/svg">
<g clip-path="url(#clip0_74_392)">
<path d="M18.5 27.3252C22.0804 27.3252 25.5142 25.9029 28.0459 23.3711C30.5777 20.8394 32 17.4056 32 13.8252C32 10.2448 30.5777 6.811 28.0459 4.27925C25.5142 1.74751 22.0804 0.325195 18.5 0.325195C14.9196 0.325195 11.4858 1.74751 8.95406 4.27925C6.42232 6.811 5 10.2448 5 13.8252C5 17.4056 6.42232 20.8394 8.95406 23.3711C11.4858 25.9029 14.9196 27.3252 18.5 27.3252ZM12.1244 11.7896L17.7723 6.52148C17.9727 6.33691 18.2311 6.23145 18.5 6.23145C18.7689 6.23145 19.0326 6.33691 19.2277 6.52148L24.8756 11.7896C25.1129 12.0111 25.25 12.3223 25.25 12.6492C25.25 13.2979 24.7227 13.8252 24.074 13.8252H21.0312V18.8877C21.0312 19.8211 20.2771 20.5752 19.3438 20.5752H17.6562C16.7229 20.5752 15.9688 19.8211 15.9688 18.8877V13.8252H12.926C12.2773 13.8252 11.75 13.2979 11.75 12.6492C11.75 12.3223 11.8871 12.0111 12.1244 11.7896Z" fill="white"/>
</g>
<path d="M3.86406 40.4004C3.01779 40.4004 2.37525 40.1747 1.93645 39.7234C1.49764 39.2658 1.27824 38.6044 1.27824 37.7394L1.27824 33.6961H1.85182L1.85182 37.6924C1.85182 39.1467 2.52256 39.8739 3.86406 39.8739C5.20555 39.8739 5.8763 39.1467 5.8763 37.6924V33.6961H6.44988V37.7394C6.44988 38.6044 6.23048 39.2658 5.79167 39.7234C5.35286 40.1747 4.71033 40.4004 3.86406 40.4004ZM8.01672 42.0177L8.01672 35.7647H8.59031L8.59031 36.6204C8.72822 36.3321 8.93508 36.1033 9.2109 35.934C9.49299 35.7647 9.81896 35.6801 10.1888 35.6801C10.5963 35.6801 10.9505 35.7773 11.2514 35.9716C11.5585 36.1659 11.7936 36.4386 11.9566 36.7897C12.1258 37.1407 12.2105 37.5576 12.2105 38.0403C12.2105 38.523 12.1258 38.943 11.9566 39.3003C11.7936 39.6513 11.5585 39.924 11.2514 40.1183C10.9505 40.3064 10.5963 40.4004 10.1888 40.4004C9.81896 40.4004 9.49299 40.3189 9.2109 40.1559C8.93508 39.993 8.72822 39.7673 8.59031 39.4789V42.0177H8.01672ZM10.1042 39.9209C10.5681 39.9209 10.9379 39.7579 11.2137 39.4319C11.4896 39.0997 11.6275 38.6358 11.6275 38.0403C11.6275 37.4447 11.4896 36.984 11.2137 36.658C10.9379 36.3321 10.5681 36.1691 10.1042 36.1691C9.64031 36.1691 9.27046 36.3321 8.99463 36.658C8.71881 36.984 8.5809 37.4447 8.5809 38.0403C8.5809 38.6358 8.71881 39.0997 8.99463 39.4319C9.27046 39.7579 9.64031 39.9209 10.1042 39.9209ZM15.1648 40.4004C14.7511 40.4004 14.3938 40.3064 14.0929 40.1183C13.792 39.924 13.5569 39.6513 13.3877 39.3003C13.2247 38.943 13.1432 38.523 13.1432 38.0403C13.1432 37.3194 13.325 36.7458 13.6886 36.3195C14.0521 35.8933 14.5442 35.6801 15.1648 35.6801C15.5284 35.6801 15.8481 35.7647 16.1239 35.934C16.406 36.097 16.616 36.3227 16.7539 36.611V33.6961H17.3275V40.3252H16.7633V39.4601C16.6254 39.7547 16.4154 39.9867 16.1333 40.1559C15.8575 40.3189 15.5347 40.4004 15.1648 40.4004ZM15.2401 39.9209C15.7039 39.9209 16.0738 39.7579 16.3496 39.4319C16.6254 39.0997 16.7633 38.6358 16.7633 38.0403C16.7633 37.4447 16.6254 36.984 16.3496 36.658C16.0738 36.3321 15.7039 36.1691 15.2401 36.1691C14.7762 36.1691 14.4063 36.3321 14.1305 36.658C13.8609 36.984 13.7262 37.4447 13.7262 38.0403C13.7262 38.6358 13.8609 39.0997 14.1305 39.4319C14.4063 39.7579 14.7762 39.9209 15.2401 39.9209ZM20.2443 40.4004C19.9371 40.4004 19.6613 40.3409 19.4168 40.2218C19.1786 40.1027 18.9874 39.9397 18.8432 39.7328C18.7053 39.5259 18.6364 39.294 18.6364 39.037C18.6364 38.6985 18.721 38.4352 18.8902 38.2471C19.0595 38.0528 19.3447 37.9149 19.7459 37.8334C20.1471 37.7519 20.6988 37.7112 21.4008 37.7112H21.6923V37.3727C21.6923 36.9527 21.6077 36.6486 21.4385 36.4606C21.2692 36.2662 20.9997 36.1691 20.6298 36.1691C20.354 36.1691 20.0876 36.2098 19.8305 36.2913C19.5798 36.3728 19.3197 36.5013 19.0501 36.6768L18.8244 36.2349C19.0626 36.0656 19.3447 35.9309 19.6707 35.8306C19.9967 35.7303 20.3132 35.6801 20.6204 35.6801C21.172 35.6801 21.5795 35.8212 21.8428 36.1033C22.1123 36.3853 22.2471 36.8179 22.2471 37.4009V40.3252H21.7017V39.5071C21.5764 39.7892 21.3852 40.0086 21.1282 40.1653C20.8774 40.3221 20.5828 40.4004 20.2443 40.4004ZM20.3195 39.9397C20.5891 39.9397 20.8241 39.877 21.0247 39.7516C21.2316 39.62 21.3946 39.4413 21.5137 39.2156C21.6328 38.99 21.6923 38.733 21.6923 38.4446V38.1343H21.4102C20.8461 38.1343 20.4041 38.1594 20.0844 38.2095C19.771 38.2597 19.5516 38.3474 19.4262 38.4728C19.3008 38.5982 19.2382 38.7706 19.2382 38.99C19.2382 39.2721 19.3353 39.5009 19.5297 39.6764C19.724 39.8519 19.9873 39.9397 20.3195 39.9397ZM25.4673 40.4004C24.9595 40.4004 24.5771 40.2625 24.3201 39.9867C24.0694 39.7109 23.944 39.3159 23.944 38.8019V36.2255H23.0413V35.7647H23.944V34.3543H24.5176V35.7647L25.9938 35.7647V36.2255L24.5176 36.2255V38.7267C24.5176 39.1091 24.5959 39.4006 24.7526 39.6012C24.9094 39.8018 25.1695 39.9021 25.5331 39.9021C25.6397 39.9021 25.7431 39.8895 25.8434 39.8644C25.9437 39.8394 26.0314 39.8112 26.1067 39.7798L26.2195 40.2312C26.1506 40.275 26.0409 40.3127 25.8904 40.344C25.74 40.3816 25.5989 40.4004 25.4673 40.4004ZM28.8343 40.4004C28.1322 40.4004 27.5774 40.1936 27.1699 39.7798C26.7687 39.3598 26.5682 38.7862 26.5682 38.0591C26.5682 37.5889 26.659 37.1752 26.8408 36.8179C27.0226 36.4606 27.2734 36.1816 27.5931 35.981C27.919 35.7804 28.292 35.6801 28.712 35.6801C29.3201 35.6801 29.7934 35.8776 30.1319 36.2725C30.4704 36.6674 30.6396 37.2097 30.6396 37.8992V38.1625H27.1323C27.1511 38.7267 27.3047 39.1624 27.5931 39.4695C27.8877 39.7704 28.2952 39.9209 28.8155 39.9209C29.0976 39.9209 29.3608 39.877 29.6053 39.7892C29.8561 39.7015 30.1005 39.5542 30.3388 39.3473L30.5644 39.7798C30.3638 39.9742 30.1068 40.1277 29.7934 40.2406C29.4799 40.3471 29.1602 40.4004 28.8343 40.4004ZM28.7214 36.1409C28.245 36.1409 27.872 36.2913 27.6025 36.5922C27.3392 36.8868 27.1856 37.2692 27.1417 37.7394H30.1225C30.1099 37.2379 29.9846 36.8461 29.7464 36.564C29.5082 36.2819 29.1665 36.1409 28.7214 36.1409ZM33.2945 40.4004C32.956 40.4004 32.63 40.3503 32.3166 40.25C32.0094 40.1497 31.7556 40.0055 31.555 39.8174L31.7618 39.3943C31.9938 39.5824 32.2414 39.7203 32.5047 39.808C32.768 39.8895 33.0375 39.9303 33.3133 39.9303C33.702 39.9303 33.9935 39.8613 34.1878 39.7234C34.3884 39.5792 34.4887 39.3818 34.4887 39.131C34.4887 38.9367 34.4229 38.7831 34.2912 38.6703C34.1596 38.5574 33.9527 38.4665 33.6706 38.3976L32.8526 38.2095C32.0815 38.034 31.696 37.6359 31.696 37.0153C31.696 36.6142 31.8527 36.2913 32.1662 36.0468C32.4796 35.8024 32.8933 35.6801 33.4074 35.6801C33.7208 35.6801 34.0154 35.7334 34.2912 35.84C34.5671 35.9403 34.7927 36.0876 34.9683 36.2819L34.7426 36.705C34.5608 36.5233 34.3539 36.3885 34.122 36.3007C33.89 36.2067 33.6487 36.1597 33.398 36.1597C33.0344 36.1597 32.7523 36.2349 32.5517 36.3853C32.3574 36.5358 32.2602 36.7395 32.2602 36.9965C32.2602 37.1909 32.3197 37.3476 32.4388 37.4667C32.558 37.5858 32.7523 37.6767 33.0218 37.7394L33.8399 37.9274C34.2474 38.0215 34.5514 38.1625 34.752 38.3506C34.9526 38.5324 35.0529 38.78 35.0529 39.0934C35.0529 39.5009 34.893 39.8206 34.5733 40.0525C34.2536 40.2844 33.8274 40.4004 33.2945 40.4004Z" fill="white"/>
<defs>
<clipPath id="clip0_74_392">
<rect width="27" height="27" fill="white" transform="translate(5 0.325195)"/>
</clipPath>
</defs>
</svg>
