<svg width="25" height="44" viewBox="0 0 25 44" fill="none" xmlns="http://www.w3.org/2000/svg">
<path d="M6.60452 0.325195C7.51761 0.325195 8.25531 1.05137 8.25531 1.9502V3.5752H14.8585V1.9502C14.8585 1.05137 15.5962 0.325195 16.5093 0.325195C17.4224 0.325195 18.1601 1.05137 18.1601 1.9502V3.5752H20.6363C22.0033 3.5752 23.1125 4.66699 23.1125 6.0127V8.4502H0.00134277V6.0127C0.00134277 4.66699 1.11047 3.5752 2.47753 3.5752H4.95372V1.9502C4.95372 1.05137 5.69142 0.325195 6.60452 0.325195ZM0.00134277 10.0752H23.1125V23.8877C23.1125 25.2334 22.0033 26.3252 20.6363 26.3252H2.47753C1.11047 26.3252 0.00134277 25.2334 0.00134277 23.8877V10.0752ZM4.12833 13.3252C3.67436 13.3252 3.30293 13.6908 3.30293 14.1377V17.3877C3.30293 17.8346 3.67436 18.2002 4.12833 18.2002H18.9855C19.4394 18.2002 19.8109 17.8346 19.8109 17.3877V14.1377C19.8109 13.6908 19.4394 13.3252 18.9855 13.3252H4.12833Z" fill="white"/>
<path d="M1.1562 40.3252L1.1562 33.6961H5.2371V34.1944H1.72038L1.72038 36.7144H5.03964V37.2128H1.72038L1.72038 39.8268H5.2371V40.3252H1.1562ZM7.72331 40.3252L5.76749 35.7647H6.40689L8.0148 39.6952L9.65092 35.7647H10.2527L8.29689 40.3252H7.72331ZM13.0823 40.4004C12.3803 40.4004 11.8255 40.1936 11.418 39.7798C11.0168 39.3598 10.8162 38.7862 10.8162 38.0591C10.8162 37.5889 10.9071 37.1752 11.0889 36.8179C11.2707 36.4606 11.5215 36.1816 11.8412 35.981C12.1671 35.7804 12.5401 35.6801 12.9601 35.6801C13.5682 35.6801 14.0415 35.8776 14.38 36.2725C14.7185 36.6674 14.8877 37.2097 14.8877 37.8992V38.1625H11.3804C11.3992 38.7267 11.5528 39.1624 11.8412 39.4695C12.1358 39.7704 12.5432 39.9209 13.0635 39.9209C13.3456 39.9209 13.6089 39.877 13.8534 39.7892C14.1041 39.7015 14.3486 39.5542 14.5868 39.3473L14.8125 39.7798C14.6119 39.9742 14.3549 40.1277 14.0415 40.2406C13.728 40.3471 13.4083 40.4004 13.0823 40.4004ZM12.9695 36.1409C12.4931 36.1409 12.1201 36.2913 11.8506 36.5922C11.5873 36.8868 11.4337 37.2692 11.3898 37.7394H14.3706C14.358 37.2379 14.2326 36.8461 13.9944 36.564C13.7562 36.2819 13.4146 36.1409 12.9695 36.1409ZM16.0569 40.3252V35.7647H16.6211V36.5828C16.7716 36.2819 16.9878 36.0562 17.2699 35.9058C17.552 35.7553 17.8654 35.6801 18.2102 35.6801C19.2947 35.6801 19.8369 36.2694 19.8369 37.4479V40.3252H19.2633V37.4949C19.2633 37.0436 19.1724 36.7113 18.9907 36.4982C18.8089 36.285 18.5205 36.1785 18.1256 36.1785C17.6742 36.1785 17.3107 36.3195 17.0348 36.6016C16.7653 36.8774 16.6305 37.2504 16.6305 37.7206V40.3252H16.0569ZM23.0393 40.4004C22.5315 40.4004 22.1492 40.2625 21.8921 39.9867C21.6414 39.7109 21.516 39.3159 21.516 38.8019V36.2255H20.6133V35.7647H21.516V34.3543H22.0896V35.7647H23.5659V36.2255H22.0896V38.7267C22.0896 39.1091 22.168 39.4006 22.3247 39.6012C22.4814 39.8018 22.7415 39.9021 23.1051 39.9021C23.2117 39.9021 23.3151 39.8895 23.4154 39.8644C23.5157 39.8394 23.6035 39.8112 23.6787 39.7798L23.7915 40.2312C23.7226 40.275 23.6129 40.3127 23.4624 40.344C23.312 40.3816 23.1709 40.4004 23.0393 40.4004Z" fill="white"/>
</svg>
