<svg width="27" height="43" viewBox="0 0 27 43" fill="none" xmlns="http://www.w3.org/2000/svg">
<g clip-path="url(#clip0_74_395)">
<path d="M25.991 11.8582C25.991 12.6707 25.3139 13.3071 24.5465 13.3071H23.1021L23.1337 20.5384C23.1337 20.6603 23.1246 20.7821 23.1111 20.904V21.6307C23.1111 22.6283 22.3031 23.4363 21.3055 23.4363H20.5833C20.5337 23.4363 20.484 23.4363 20.4344 23.4318C20.3712 23.4363 20.308 23.4363 20.2448 23.4363H18.7778H17.6944C16.6969 23.4363 15.8889 22.6283 15.8889 21.6307V20.5474V17.6585C15.8889 16.8596 15.2434 16.2141 14.4444 16.2141H11.5556C10.7566 16.2141 10.1111 16.8596 10.1111 17.6585V20.5474V21.6307C10.1111 22.6283 9.30312 23.4363 8.30555 23.4363H7.22222H5.78229C5.71458 23.4363 5.64687 23.4318 5.57916 23.4273C5.525 23.4318 5.47083 23.4363 5.41666 23.4363H4.69444C3.69687 23.4363 2.88889 22.6283 2.88889 21.6307V16.5752C2.88889 16.5346 2.88889 16.4894 2.8934 16.4488V13.3071H1.44444C0.631944 13.3071 0 12.6752 0 11.8582C0 11.4519 0.135417 11.0908 0.451389 10.7748L12.025 0.686306C12.341 0.370334 12.7021 0.325195 13.0181 0.325195C13.334 0.325195 13.6951 0.415473 13.966 0.641167L25.4944 10.7748C25.8555 11.0908 26.0361 11.4519 25.991 11.8582Z" fill="white"/>
</g>
<path d="M1.28166 39.3252L1.28166 32.6961H1.85524L1.85524 35.705H6.08659V32.6961H6.66017L6.66017 39.3252H6.08659L6.08659 36.2222H1.85524L1.85524 39.3252H1.28166ZM10.0909 39.4004C9.66467 39.4004 9.29482 39.3064 8.98138 39.1183C8.66795 38.924 8.42347 38.6513 8.24795 38.3003C8.0787 37.943 7.99407 37.523 7.99407 37.0403C7.99407 36.5639 8.0787 36.1501 8.24795 35.7991C8.42347 35.4418 8.66795 35.1659 8.98138 34.9716C9.29482 34.7773 9.66467 34.6801 10.0909 34.6801C10.5235 34.6801 10.8965 34.7773 11.2099 34.9716C11.5233 35.1659 11.7647 35.4418 11.9339 35.7991C12.1094 36.1501 12.1972 36.5639 12.1972 37.0403C12.1972 37.523 12.1094 37.943 11.9339 38.3003C11.7647 38.6513 11.5233 38.924 11.2099 39.1183C10.8965 39.3064 10.5235 39.4004 10.0909 39.4004ZM10.0909 38.9209C10.5548 38.9209 10.9247 38.7579 11.2005 38.4319C11.4763 38.0997 11.6142 37.6358 11.6142 37.0403C11.6142 36.4447 11.4763 35.984 11.2005 35.658C10.9247 35.3321 10.5548 35.1691 10.0909 35.1691C9.62705 35.1691 9.2572 35.3321 8.98138 35.658C8.71183 35.984 8.57705 36.4447 8.57705 37.0403C8.57705 37.6358 8.71183 38.0997 8.98138 38.4319C9.2572 38.7579 9.62705 38.9209 10.0909 38.9209ZM13.4372 39.3252L13.4372 34.7647H14.0014L14.0014 35.564C14.2835 34.9747 14.763 34.6801 15.4401 34.6801C16.1672 34.6801 16.628 34.9967 16.8223 35.6298C16.9539 35.3352 17.1545 35.1033 17.4241 34.934C17.6936 34.7647 18.0071 34.6801 18.3644 34.6801C19.3736 34.6801 19.8783 35.2694 19.8783 36.4479V39.3252H19.3047V36.4949C19.3047 36.0436 19.2232 35.7113 19.0602 35.4982C18.9035 35.285 18.6371 35.1785 18.261 35.1785C17.8598 35.1785 17.5401 35.3195 17.3018 35.6016C17.0636 35.8774 16.9445 36.2536 16.9445 36.73V39.3252H16.371V36.4949C16.371 36.0436 16.2895 35.7113 16.1265 35.4982C15.9698 35.285 15.7065 35.1785 15.3366 35.1785C14.9292 35.1785 14.6063 35.3195 14.3681 35.6016C14.1299 35.8774 14.0108 36.2536 14.0108 36.73V39.3252H13.4372ZM23.3638 39.4004C22.6617 39.4004 22.1069 39.1936 21.6994 38.7798C21.2982 38.3598 21.0976 37.7862 21.0976 37.0591C21.0976 36.5889 21.1885 36.1752 21.3703 35.8179C21.5521 35.4606 21.8029 35.1816 22.1226 34.981C22.4485 34.7804 22.8215 34.6801 23.2415 34.6801C23.8496 34.6801 24.3229 34.8776 24.6614 35.2725C24.9999 35.6674 25.1691 36.2097 25.1691 36.8992V37.1625L21.6618 37.1625C21.6806 37.7267 21.8342 38.1624 22.1226 38.4695C22.4172 38.7704 22.8247 38.9209 23.345 38.9209C23.627 38.9209 23.8903 38.877 24.1348 38.7892C24.3856 38.7015 24.63 38.5542 24.8682 38.3473L25.0939 38.7798C24.8933 38.9742 24.6363 39.1277 24.3229 39.2406C24.0094 39.3471 23.6897 39.4004 23.3638 39.4004ZM23.2509 35.1409C22.7745 35.1409 22.4015 35.2913 22.132 35.5922C21.8687 35.8868 21.7151 36.2692 21.6712 36.7394H24.652C24.6394 36.2379 24.5141 35.8461 24.2759 35.564C24.0376 35.2819 23.696 35.1409 23.2509 35.1409Z" fill="white"/>
<defs>
<clipPath id="clip0_74_395">
<rect width="26" height="23.1111" fill="white" transform="translate(0 0.325195)"/>
</clipPath>
</defs>
</svg>
