<svg width="27" height="27" viewBox="0 0 27 27" fill="none" xmlns="http://www.w3.org/2000/svg">
<path d="M13.9154 0C14.0692 0.0528298 14.2283 0.100377 14.3821 0.153206C15.5646 0.570562 16.3176 1.81206 16.1214 2.99545C15.8986 4.32148 14.8328 5.25656 13.5495 5.27241C12.2345 5.28298 11.1368 4.39544 10.8982 3.12752C10.6384 1.7381 11.4868 0.422638 12.8814 0.0686787C12.945 0.0528298 13.0087 0.0264149 13.0723 0C13.348 0 13.6344 0 13.9154 0Z" fill="white"/>
<path d="M21.1645 10.2807C21.4403 10.2807 21.6895 10.2807 21.9334 10.2807C22.4054 10.286 22.75 10.6135 22.75 11.0626C22.7553 11.5116 22.416 11.8497 21.944 11.8603C21.8751 11.8603 21.8009 11.8603 21.6895 11.8603C21.6895 11.9607 21.6895 12.0505 21.6895 12.1456C21.6895 13.1388 21.6895 14.132 21.6895 15.1252C21.6895 15.2678 21.6683 15.3576 21.5092 15.421C19.1866 16.3614 18.1844 18.781 19.1548 21.0791C19.1707 21.1161 19.1813 21.1583 19.1283 21.1425C18.8207 21.4542 18.5079 21.7606 18.2427 22.0247C17.9882 21.7712 17.6754 21.4542 17.3307 21.1055C17.7708 20.1651 17.8556 19.1033 17.4951 18.0202C17.2087 17.1538 16.6784 16.4512 15.9361 15.9176C14.446 14.8557 12.431 14.8822 10.9727 15.9599C9.68949 16.9003 8.65016 18.8972 9.63647 21.1214C9.3024 21.4489 8.98954 21.7553 8.7138 22.0247C8.46987 21.7764 8.16232 21.4542 7.83885 21.1214C7.929 20.7515 8.08278 20.2919 8.14641 19.8217C8.38503 17.9463 7.30328 16.1395 5.53748 15.4527C5.31477 15.3682 5.27765 15.2572 5.27765 15.0512C5.28825 14.095 5.28295 13.1335 5.28295 12.1773C5.28295 12.0822 5.28295 11.9871 5.28295 11.8709C5.20341 11.8656 5.14508 11.8603 5.08675 11.8603C4.56709 11.8497 4.22241 11.538 4.22241 11.0678C4.22241 10.5977 4.57239 10.2807 5.08675 10.2807C8.11989 10.2807 11.153 10.2807 14.1915 10.2807C15.8777 10.2807 17.5587 10.2807 19.245 10.2807C19.3404 10.2807 19.4358 10.2807 19.5525 10.2807C19.5578 10.2014 19.5737 10.138 19.5737 10.0694C19.5737 9.26106 19.579 8.45277 19.5684 7.64447C19.5684 7.53881 19.5101 7.40674 19.4412 7.32749C19.229 7.08976 18.9957 6.87844 18.773 6.65127C18.4336 6.30259 18.4283 5.81128 18.7518 5.4943C19.07 5.1826 19.5525 5.18788 19.8919 5.51543C20.2366 5.84297 20.5653 6.18637 20.9047 6.51919C21.0903 6.7041 21.1698 6.9207 21.1645 7.18485C21.1592 8.20975 21.1645 9.22936 21.1645 10.2807Z" fill="white"/>
<path d="M1.10965 22.4685C2.7694 23.9108 5.11849 23.9425 6.82066 22.4685C7.4835 22.9599 7.8812 23.6097 7.92362 24.4391C7.95543 25.0361 7.93953 25.633 7.92892 26.23C7.92362 26.6632 7.58955 26.9908 7.14943 26.9961C5.02304 27.0013 2.90197 27.0013 0.775584 26.9961C0.383185 26.9961 0.0172985 26.7055 0.0119958 26.3357C0.00139043 25.5802 -0.0145177 24.8247 0.0703255 24.0746C0.139261 23.3983 0.552871 22.8859 1.10965 22.4685Z" fill="white"/>
<path d="M10.6332 22.4791C12.4733 24.0376 14.8224 23.8104 16.3389 22.4738C16.8268 22.8014 17.1608 23.2504 17.3305 23.8051C17.4101 24.0534 17.4472 24.3176 17.4525 24.5817C17.4737 25.11 17.4578 25.633 17.4578 26.1613C17.4578 26.6632 17.1343 26.9908 16.6359 26.996C14.536 26.996 12.4414 26.996 10.3416 26.996C9.85903 26.996 9.51966 26.6685 9.52496 26.1878C9.53027 25.4851 9.50906 24.7772 9.5886 24.0851C9.66814 23.4036 10.0764 22.8806 10.6332 22.4791Z" fill="white"/>
<path d="M20.1678 22.4685C21.7056 23.8157 24.0546 24.027 25.8788 22.4738C26.5416 22.9704 26.934 23.6202 26.9764 24.4497C27.0083 25.0361 26.987 25.6278 26.9817 26.2142C26.9764 26.6632 26.6424 26.9908 26.1916 26.9961C24.0759 27.0013 21.9601 27.0013 19.8443 26.9961C19.4466 26.9961 19.0754 26.7213 19.0648 26.3462C19.0489 25.5749 19.033 24.7983 19.1231 24.0323C19.2027 23.3772 19.6163 22.8648 20.1678 22.4685Z" fill="white"/>
<path d="M6.60881 19.3568C6.60881 20.8202 5.42631 21.993 3.94686 21.9877C2.49392 21.9825 1.32202 20.8044 1.32202 19.3463C1.32202 17.8829 2.50452 16.7153 3.98398 16.7153C5.44222 16.7206 6.61411 17.8987 6.60881 19.3568Z" fill="white"/>
<path d="M16.1374 19.3568C16.1374 20.8202 14.9549 21.993 13.4754 21.9878C12.0225 21.9825 10.8453 20.8044 10.8506 19.3463C10.8506 17.8829 12.0331 16.7101 13.5126 16.7153C14.9655 16.7206 16.1374 17.8987 16.1374 19.3568Z" fill="white"/>
<path d="M23.0309 16.7153C24.4997 16.7206 25.6663 17.8987 25.661 19.378C25.6557 20.8255 24.4679 21.9878 22.9991 21.9878C21.5302 21.9825 20.3636 20.7991 20.3689 19.3251C20.3795 17.8776 21.5673 16.7101 23.0309 16.7153Z" fill="white"/>
<path d="M8.50146 8.68521C8.62873 7.76598 9.02643 6.99994 9.68927 6.37655C9.91728 6.15995 10.1824 5.98561 10.4476 5.81127C10.5112 5.76901 10.6703 5.78486 10.7339 5.83769C12.4308 7.19541 14.5518 7.19541 16.2434 5.83769C16.3017 5.79014 16.4343 5.75316 16.4873 5.78486C17.585 6.4241 18.2637 7.35919 18.4652 8.62182C18.4705 8.63767 18.4599 8.6588 18.4599 8.68521C15.1457 8.68521 11.8369 8.68521 8.50146 8.68521Z" fill="white"/>
</svg>
