<svg width="30" height="44" viewBox="0 0 30 44" fill="none" xmlns="http://www.w3.org/2000/svg">
<path d="M5.71087 0C3.66221 0 1.99658 1.66562 1.99658 3.71429V22.2857C1.99658 24.3344 3.66221 26 5.71087 26H24.2823C26.331 26 27.9966 24.3344 27.9966 22.2857V3.71429C27.9966 1.66562 26.331 0 24.2823 0H5.71087ZM9.42515 7.42857H12.2109C13.2381 7.42857 14.068 8.25848 14.068 9.28571V10.6786V12.0714V14.3522C14.068 16.3951 12.5939 18.1362 10.5743 18.4728L10.1158 18.5482C9.35551 18.6759 8.64167 18.1594 8.51399 17.4049C8.38631 16.6504 8.90283 15.9308 9.6573 15.8031L10.1158 15.7277C10.789 15.6174 11.2823 15.0371 11.2823 14.3522V13.9286H9.42515C8.39792 13.9286 7.56801 13.0987 7.56801 12.0714V9.28571C7.56801 8.25848 8.39792 7.42857 9.42515 7.42857ZM22.4252 12.0714V14.3522C22.4252 16.3951 20.951 18.1362 18.9314 18.4728L18.4729 18.5482C17.7127 18.6759 16.9988 18.1594 16.8711 17.4049C16.7435 16.6504 17.26 15.9308 18.0144 15.8031L18.4729 15.7277C19.1461 15.6174 19.6394 15.0371 19.6394 14.3522V13.9286H17.7823C16.7551 13.9286 15.9252 13.0987 15.9252 12.0714V9.28571C15.9252 8.25848 16.7551 7.42857 17.7823 7.42857H20.568C21.5952 7.42857 22.4252 8.25848 22.4252 9.28571V10.6786V12.0714Z" fill="white"/>
<path d="M5.42552 42.1588L4.69209 40.9834C4.45388 40.5947 4.08089 40.4004 3.57313 40.4004C2.96507 40.4004 2.43851 40.2625 1.99343 39.9867C1.55462 39.7109 1.21298 39.3191 0.968505 38.8113C0.730296 38.3036 0.611191 37.7018 0.611191 37.0059C0.611191 36.3101 0.730296 35.7083 0.968505 35.2006C1.20671 34.6928 1.54836 34.3041 1.99343 34.0346C2.43851 33.7588 2.96507 33.6209 3.57313 33.6209C4.18746 33.6209 4.71403 33.7588 5.15283 34.0346C5.59791 34.3041 5.93955 34.6928 6.17776 35.2006C6.42224 35.7021 6.54448 36.3007 6.54448 36.9965C6.54448 37.8303 6.37209 38.5292 6.02731 39.0934C5.68254 39.6576 5.20612 40.0431 4.59806 40.25C4.73597 40.2939 4.85821 40.3691 4.96477 40.4756C5.07134 40.5822 5.17791 40.7295 5.28448 40.9176L5.89567 41.8861L5.42552 42.1588ZM3.57313 39.8739C4.3191 39.8739 4.89895 39.6231 5.31268 39.1216C5.72642 38.6201 5.93328 37.9149 5.93328 37.0059C5.93328 36.097 5.72642 35.3949 5.31268 34.8997C4.90522 34.3982 4.32537 34.1474 3.57313 34.1474C2.82716 34.1474 2.24731 34.3982 1.83358 34.8997C1.42612 35.4012 1.22239 36.1033 1.22239 37.0059C1.22239 37.9086 1.42612 38.6139 1.83358 39.1216C2.24731 39.6231 2.82716 39.8739 3.57313 39.8739ZM9.50443 40.4004C8.41995 40.4004 7.87772 39.8112 7.87772 38.6327L7.87772 35.7647H8.4513L8.4513 38.6044C8.4513 39.0495 8.54219 39.3786 8.72398 39.5918C8.90578 39.8049 9.191 39.9115 9.57966 39.9115C9.99966 39.9115 10.3413 39.7704 10.6046 39.4883C10.8741 39.2062 11.0089 38.8301 11.0089 38.36L11.0089 35.7647H11.5825L11.5825 40.3252H11.0277V39.5165C10.8773 39.8049 10.6673 40.0243 10.3977 40.1747C10.1344 40.3252 9.83667 40.4004 9.50443 40.4004ZM14.9087 40.4004C14.4824 40.4004 14.1125 40.3064 13.7991 40.1183C13.4857 39.924 13.2412 39.6513 13.0657 39.3003C12.8964 38.943 12.8118 38.523 12.8118 38.0403C12.8118 37.5639 12.8964 37.1501 13.0657 36.7991C13.2412 36.4418 13.4857 36.1659 13.7991 35.9716C14.1125 35.7773 14.4824 35.6801 14.9087 35.6801C15.3412 35.6801 15.7142 35.7773 16.0276 35.9716C16.341 36.1659 16.5824 36.4418 16.7516 36.7991C16.9272 37.1501 17.0149 37.5639 17.0149 38.0403C17.0149 38.523 16.9272 38.943 16.7516 39.3003C16.5824 39.6513 16.341 39.924 16.0276 40.1183C15.7142 40.3064 15.3412 40.4004 14.9087 40.4004ZM14.9087 39.9209C15.3725 39.9209 15.7424 39.7579 16.0182 39.4319C16.294 39.0997 16.4319 38.6358 16.4319 38.0403C16.4319 37.4447 16.294 36.984 16.0182 36.658C15.7424 36.3321 15.3725 36.1691 14.9087 36.1691C14.4448 36.1691 14.0749 36.3321 13.7991 36.658C13.5295 36.984 13.3948 37.4447 13.3948 38.0403C13.3948 38.6358 13.5295 39.0997 13.7991 39.4319C14.0749 39.7579 14.4448 39.9209 14.9087 39.9209ZM19.911 40.4004C19.4032 40.4004 19.0208 40.2625 18.7638 39.9867C18.5131 39.7109 18.3877 39.3159 18.3877 38.8019V36.2255H17.485V35.7647H18.3877V34.3543H18.9613V35.7647H20.4375V36.2255H18.9613V38.7267C18.9613 39.1091 19.0396 39.4006 19.1963 39.6012C19.3531 39.8018 19.6132 39.9021 19.9768 39.9021C20.0834 39.9021 20.1868 39.8895 20.2871 39.8644C20.3874 39.8394 20.4751 39.8112 20.5504 39.7798L20.6632 40.2312C20.5942 40.275 20.4845 40.3127 20.3341 40.344C20.1837 40.3816 20.0426 40.4004 19.911 40.4004ZM23.278 40.4004C22.5759 40.4004 22.0211 40.1936 21.6136 39.7798C21.2124 39.3598 21.0119 38.7862 21.0119 38.0591C21.0119 37.5889 21.1027 37.1752 21.2845 36.8179C21.4663 36.4606 21.7171 36.1816 22.0368 35.981C22.3627 35.7804 22.7357 35.6801 23.1557 35.6801C23.7638 35.6801 24.2371 35.8776 24.5756 36.2725C24.9141 36.6674 25.0833 37.2097 25.0833 37.8992V38.1625L21.576 38.1625C21.5948 38.7267 21.7484 39.1624 22.0368 39.4695C22.3314 39.7704 22.7389 39.9209 23.2592 39.9209C23.5413 39.9209 23.8045 39.877 24.049 39.7892C24.2998 39.7015 24.5442 39.5542 24.7824 39.3473L25.0081 39.7798C24.8075 39.9742 24.5505 40.1277 24.2371 40.2406C23.9236 40.3471 23.6039 40.4004 23.278 40.4004ZM23.1651 36.1409C22.6887 36.1409 22.3157 36.2913 22.0462 36.5922C21.7829 36.8868 21.6293 37.2692 21.5854 37.7394H24.5662C24.5536 37.2379 24.4283 36.8461 24.1901 36.564C23.9519 36.2819 23.6102 36.1409 23.1651 36.1409ZM27.7382 40.4004C27.3997 40.4004 27.0737 40.3503 26.7603 40.25C26.4531 40.1497 26.1993 40.0055 25.9987 39.8174L26.2055 39.3943C26.4375 39.5824 26.6851 39.7203 26.9484 39.808C27.2116 39.8895 27.4812 39.9303 27.757 39.9303C28.1457 39.9303 28.4372 39.8613 28.6315 39.7234C28.8321 39.5792 28.9324 39.3818 28.9324 39.131C28.9324 38.9367 28.8666 38.7831 28.7349 38.6703C28.6033 38.5574 28.3964 38.4665 28.1143 38.3976L27.2963 38.2095C26.5252 38.034 26.1397 37.6359 26.1397 37.0153C26.1397 36.6142 26.2964 36.2913 26.6099 36.0468C26.9233 35.8024 27.337 35.6801 27.8511 35.6801C28.1645 35.6801 28.4591 35.7334 28.7349 35.84C29.0108 35.9403 29.2364 36.0876 29.4119 36.2819L29.1863 36.705C29.0045 36.5233 28.7976 36.3885 28.5657 36.3007C28.3337 36.2067 28.0924 36.1597 27.8416 36.1597C27.4781 36.1597 27.196 36.2349 26.9954 36.3853C26.8011 36.5358 26.7039 36.7395 26.7039 36.9965C26.7039 37.1909 26.7634 37.3476 26.8825 37.4667C27.0016 37.5858 27.196 37.6767 27.4655 37.7394L28.2836 37.9274C28.6911 38.0215 28.9951 38.1625 29.1957 38.3506C29.3963 38.5324 29.4966 38.78 29.4966 39.0934C29.4966 39.5009 29.3367 39.8206 29.017 40.0525C28.6973 40.2844 28.2711 40.4004 27.7382 40.4004Z" fill="white"/>
</svg>
