<svg width="72" height="17" viewBox="0 0 72 17" fill="none" xmlns="http://www.w3.org/2000/svg">
<g filter="url(#filter0_b_702_2)">
<path d="M0 0H72V17H0L4.54737 8.34821L0 0Z" fill="white" fill-opacity="0.28"/>
<path d="M0.253704 0.150706H71.8493V16.8493H0.249465L4.68077 8.41833L4.71829 8.34694L4.67971 8.27612L0.253704 0.150706Z" stroke="white" stroke-opacity="0.1" stroke-width="0.301411"/>
</g>
<path d="M13.7278 11.0603C13.0496 11.0603 12.5347 10.8794 12.183 10.5177C11.8314 10.151 11.6556 9.62104 11.6556 8.9278V5.68763H12.1152V8.89012C12.1152 10.0556 12.6527 10.6383 13.7278 10.6383C14.8028 10.6383 15.3403 10.0556 15.3403 8.89012V5.68763H15.8V8.9278C15.8 9.62104 15.6242 10.151 15.2725 10.5177C14.9209 10.8794 14.4059 11.0603 13.7278 11.0603ZM17.0556 12.3564V7.34539H17.5153V8.0311C17.6258 7.80002 17.7915 7.61666 18.0126 7.48102C18.2386 7.34539 18.4999 7.27757 18.7963 7.27757C19.1228 7.27757 19.4066 7.35543 19.6477 7.51116C19.8939 7.66689 20.0823 7.88542 20.2129 8.16673C20.3485 8.44805 20.4163 8.78211 20.4163 9.16893C20.4163 9.55574 20.3485 9.89231 20.2129 10.1787C20.0823 10.46 19.8939 10.6785 19.6477 10.8342C19.4066 10.9849 19.1228 11.0603 18.7963 11.0603C18.4999 11.0603 18.2386 10.995 18.0126 10.8644C17.7915 10.7338 17.6258 10.5529 17.5153 10.3218V12.3564H17.0556ZM18.7284 10.676C19.1002 10.676 19.3966 10.5454 19.6176 10.2841C19.8386 10.0179 19.9491 9.64616 19.9491 9.16893C19.9491 8.69169 19.8386 8.32246 19.6176 8.06124C19.3966 7.80002 19.1002 7.6694 18.7284 7.6694C18.3567 7.6694 18.0603 7.80002 17.8393 8.06124C17.6182 8.32246 17.5077 8.69169 17.5077 9.16893C17.5077 9.64616 17.6182 10.0179 17.8393 10.2841C18.0603 10.5454 18.3567 10.676 18.7284 10.676ZM22.8818 11.0603C22.5252 11.0603 22.2187 10.9824 21.9625 10.8267C21.7063 10.6659 21.5079 10.4424 21.3673 10.156C21.2316 9.86468 21.1638 9.52811 21.1638 9.14632C21.1638 8.56862 21.3145 8.11399 21.6159 7.78243C21.9224 7.44586 22.3443 7.27757 22.8818 7.27757C23.1029 7.27757 23.3214 7.32027 23.5374 7.40567C23.7534 7.49107 23.9343 7.60912 24.08 7.75983L23.8991 8.10645C23.7434 7.95575 23.5776 7.84774 23.4018 7.78243C23.226 7.7121 23.0577 7.67694 22.8969 7.67694C22.49 7.67694 22.176 7.80504 21.955 8.06124C21.739 8.31744 21.631 8.68164 21.631 9.15386C21.631 9.62607 21.739 9.99781 21.955 10.2691C22.176 10.5353 22.49 10.6684 22.8969 10.6684C23.0577 10.6684 23.226 10.6358 23.4018 10.5705C23.5776 10.5002 23.7434 10.3896 23.8991 10.2389L24.08 10.5856C23.9343 10.7312 23.7509 10.8468 23.5299 10.9322C23.3139 11.0176 23.0979 11.0603 22.8818 11.0603ZM26.2292 11.0603C25.8876 11.0603 25.5912 10.9849 25.34 10.8342C25.0888 10.6785 24.8929 10.46 24.7522 10.1787C24.6166 9.89231 24.5488 9.55574 24.5488 9.16893C24.5488 8.78714 24.6166 8.45559 24.7522 8.17427C24.8929 7.88793 25.0888 7.66689 25.34 7.51116C25.5912 7.35543 25.8876 7.27757 26.2292 7.27757C26.5758 7.27757 26.8747 7.35543 27.1259 7.51116C27.377 7.66689 27.5704 7.88793 27.7061 8.17427C27.8467 8.45559 27.9171 8.78714 27.9171 9.16893C27.9171 9.55574 27.8467 9.89231 27.7061 10.1787C27.5704 10.46 27.377 10.6785 27.1259 10.8342C26.8747 10.9849 26.5758 11.0603 26.2292 11.0603ZM26.2292 10.676C26.6009 10.676 26.8973 10.5454 27.1183 10.2841C27.3394 10.0179 27.4499 9.64616 27.4499 9.16893C27.4499 8.69169 27.3394 8.32246 27.1183 8.06124C26.8973 7.80002 26.6009 7.6694 26.2292 7.6694C25.8574 7.6694 25.561 7.80002 25.34 8.06124C25.124 8.32246 25.016 8.69169 25.016 9.16893C25.016 9.64616 25.124 10.0179 25.34 10.2841C25.561 10.5454 25.8574 10.676 26.2292 10.676ZM28.9108 11V7.34539H29.3629V7.98589C29.589 7.51368 29.9733 7.27757 30.5158 7.27757C31.0985 7.27757 31.4678 7.53126 31.6235 8.03863C31.729 7.80253 31.8897 7.61666 32.1057 7.48102C32.3217 7.34539 32.5729 7.27757 32.8593 7.27757C33.6681 7.27757 34.0724 7.74978 34.0724 8.6942V11H33.6128V8.73188C33.6128 8.37019 33.5475 8.10394 33.4169 7.93314C33.2913 7.76234 33.0778 7.67694 32.7764 7.67694C32.4549 7.67694 32.1987 7.78997 32.0078 8.01603C31.8169 8.23706 31.7214 8.53847 31.7214 8.92026V11H31.2618V8.73188C31.2618 8.37019 31.1965 8.10394 31.0659 7.93314C30.9403 7.76234 30.7293 7.67694 30.4329 7.67694C30.1064 7.67694 29.8477 7.78997 29.6568 8.01603C29.4659 8.23706 29.3704 8.53847 29.3704 8.92026V11H28.9108ZM35.2003 6.38087V5.80065H35.8182V6.38087H35.2003ZM35.2757 11V7.34539H35.7353V11H35.2757ZM36.9461 11V7.34539H37.3982V8.00096C37.5188 7.75983 37.6921 7.57898 37.9181 7.45842C38.1442 7.33785 38.3954 7.27757 38.6717 7.27757C39.5407 7.27757 39.9753 7.74978 39.9753 8.6942V11H39.5156V8.73188C39.5156 8.37019 39.4428 8.10394 39.2971 7.93314C39.1514 7.76234 38.9203 7.67694 38.6039 7.67694C38.2422 7.67694 37.9508 7.78997 37.7298 8.01603C37.5138 8.23706 37.4057 8.53596 37.4057 8.91273V11H36.9461ZM42.7526 12.4166C42.1146 12.4166 41.5846 12.2483 41.1626 11.9118L41.3359 11.5651C41.567 11.7309 41.7906 11.849 42.0066 11.9193C42.2226 11.9947 42.4662 12.0323 42.7375 12.0323C43.1042 12.0323 43.383 11.9319 43.5739 11.7309C43.7648 11.53 43.8602 11.2386 43.8602 10.8568V10.1485C43.7548 10.3896 43.5865 10.578 43.3554 10.7137C43.1293 10.8493 42.8706 10.9171 42.5793 10.9171C42.2377 10.9171 41.9438 10.8418 41.6976 10.6911C41.4565 10.5353 41.2681 10.3218 41.1325 10.0506C41.0019 9.77426 40.9366 9.45527 40.9366 9.09357C40.9366 8.73188 41.0019 8.4154 41.1325 8.14413C41.2681 7.87286 41.4565 7.66187 41.6976 7.51116C41.9438 7.35543 42.2377 7.27757 42.5793 7.27757C42.8706 7.27757 43.1293 7.34539 43.3554 7.48102C43.5814 7.61666 43.7472 7.80253 43.8527 8.03863V7.34539H44.3048V10.789C44.3048 11.8741 43.7874 12.4166 42.7526 12.4166ZM42.632 10.5253C43.0088 10.5253 43.3077 10.3972 43.5287 10.141C43.7497 9.87975 43.8602 9.53062 43.8602 9.09357C43.8602 8.65653 43.7497 8.3099 43.5287 8.0537C43.3077 7.7975 43.0088 7.6694 42.632 7.6694C42.2502 7.6694 41.9488 7.7975 41.7278 8.0537C41.5118 8.3099 41.4037 8.65653 41.4037 9.09357C41.4037 9.53062 41.5118 9.87975 41.7278 10.141C41.9488 10.3972 42.2502 10.5253 42.632 10.5253ZM47.5006 11V5.68763H50.7709V6.087H47.9527V8.10645H50.6126V8.50582H47.9527V10.6006H50.7709V11H47.5006ZM52.7632 11L51.1959 7.34539H51.7083L52.9968 10.4951L54.308 7.34539H54.7902L53.2229 11H52.7632ZM57.0578 11.0603C56.4952 11.0603 56.0506 10.8945 55.7241 10.563C55.4026 10.2264 55.2418 9.76673 55.2418 9.184C55.2418 8.80723 55.3147 8.47568 55.4603 8.18934C55.606 7.903 55.807 7.67945 56.0632 7.5187C56.3244 7.35795 56.6233 7.27757 56.9599 7.27757C57.4471 7.27757 57.8264 7.43581 58.0977 7.75229C58.369 8.06877 58.5046 8.50331 58.5046 9.0559V9.26688H55.6939C55.709 9.719 55.8321 10.0681 56.0632 10.3143C56.2993 10.5554 56.6258 10.676 57.0428 10.676C57.2688 10.676 57.4798 10.6408 57.6757 10.5705C57.8767 10.5002 58.0726 10.3821 58.2635 10.2163L58.4443 10.563C58.2836 10.7187 58.0776 10.8418 57.8264 10.9322C57.5752 11.0176 57.319 11.0603 57.0578 11.0603ZM56.9674 7.6468C56.5856 7.6468 56.2867 7.76736 56.0707 8.00849C55.8597 8.2446 55.7366 8.55103 55.7015 8.9278H58.0902C58.0801 8.52592 57.9796 8.21195 57.7887 7.98589C57.5979 7.75983 57.3241 7.6468 56.9674 7.6468ZM59.4416 11V7.34539H59.8937V8.00096C60.0142 7.75983 60.1876 7.57898 60.4136 7.45842C60.6397 7.33785 60.8909 7.27757 61.1671 7.27757C62.0362 7.27757 62.4707 7.74978 62.4707 8.6942V11H62.0111V8.73188C62.0111 8.37019 61.9383 8.10394 61.7926 7.93314C61.6469 7.76234 61.4158 7.67694 61.0993 7.67694C60.7376 7.67694 60.4463 7.78997 60.2252 8.01603C60.0092 8.23706 59.9012 8.53596 59.9012 8.91273V11H59.4416ZM65.037 11.0603C64.6301 11.0603 64.3237 10.9498 64.1177 10.7287C63.9168 10.5077 63.8163 10.1912 63.8163 9.77928V7.71462H63.0929V7.34539H63.8163V6.2151H64.276V7.34539H65.459V7.71462H64.276V9.719C64.276 10.0254 64.3388 10.259 64.4644 10.4198C64.5899 10.5805 64.7984 10.6609 65.0898 10.6609C65.1752 10.6609 65.2581 10.6509 65.3385 10.6308C65.4188 10.6107 65.4892 10.5881 65.5494 10.563L65.6399 10.9246C65.5846 10.9598 65.4967 10.99 65.3761 11.0151C65.2556 11.0452 65.1425 11.0603 65.037 11.0603ZM67.3727 11.0603C67.1014 11.0603 66.8402 11.0201 66.589 10.9397C66.3429 10.8593 66.1394 10.7438 65.9787 10.5931L66.1444 10.254C66.3303 10.4047 66.5287 10.5152 66.7397 10.5856C66.9507 10.6509 67.1667 10.6835 67.3878 10.6835C67.6992 10.6835 67.9328 10.6283 68.0885 10.5177C68.2493 10.4022 68.3297 10.244 68.3297 10.043C68.3297 9.88729 68.2769 9.76421 68.1714 9.67379C68.0659 9.58337 67.9002 9.51053 67.6741 9.45527L67.0185 9.30456C66.4006 9.1639 66.0917 8.84491 66.0917 8.34758C66.0917 8.02608 66.2173 7.76736 66.4685 7.57145C66.7196 7.37553 67.0512 7.27757 67.4631 7.27757C67.7143 7.27757 67.9504 7.32027 68.1714 7.40567C68.3925 7.48605 68.5733 7.6041 68.714 7.75983L68.5331 8.09892C68.3874 7.95323 68.2217 7.84523 68.0358 7.7749C67.8499 7.69955 67.6565 7.66187 67.4556 7.66187C67.1642 7.66187 66.9382 7.72215 66.7774 7.84272C66.6217 7.96328 66.5438 8.12655 66.5438 8.33251C66.5438 8.48824 66.5915 8.61383 66.687 8.70927C66.7824 8.80472 66.9382 8.87756 67.1542 8.9278L67.8097 9.0785C68.1363 9.15386 68.3799 9.26688 68.5407 9.41759C68.7014 9.56327 68.7818 9.7617 68.7818 10.0129C68.7818 10.3394 68.6537 10.5956 68.3975 10.7815C68.1413 10.9673 67.7997 11.0603 67.3727 11.0603Z" fill="white"/>
<defs>
<filter id="filter0_b_702_2" x="-5.18427" y="-5.18427" width="82.3685" height="27.3685" filterUnits="userSpaceOnUse" color-interpolation-filters="sRGB">
<feFlood flood-opacity="0" result="BackgroundImageFix"/>
<feGaussianBlur in="BackgroundImageFix" stdDeviation="2.59214"/>
<feComposite in2="SourceAlpha" operator="in" result="effect1_backgroundBlur_702_2"/>
<feBlend mode="normal" in="SourceGraphic" in2="effect1_backgroundBlur_702_2" result="shape"/>
</filter>
</defs>
</svg>
