<svg width="53" height="45" viewBox="0 0 53 45" fill="none" xmlns="http://www.w3.org/2000/svg">
<path d="M1.02877 41.3252L1.02877 34.6961H3.16325C4.21638 34.6961 5.02817 34.9782 5.59862 35.5424C6.17534 36.1065 6.46369 36.9277 6.46369 38.0059C6.46369 39.0842 6.17534 39.9085 5.59862 40.4789C5.02817 41.0431 4.21638 41.3252 3.16325 41.3252H1.02877ZM1.60235 40.8174H3.11623C4.93414 40.8174 5.8431 39.8803 5.8431 38.0059C5.8431 36.1379 4.93414 35.2039 3.11623 35.2039H1.60235L1.60235 40.8174ZM9.7961 41.4004C9.09401 41.4004 8.53923 41.1936 8.13177 40.7798C7.73058 40.3598 7.52998 39.7862 7.52998 39.0591C7.52998 38.5889 7.62087 38.1752 7.80267 37.8179C7.98446 37.4606 8.2352 37.1816 8.5549 36.981C8.88087 36.7804 9.25386 36.6801 9.67386 36.6801C10.2819 36.6801 10.7552 36.8776 11.0937 37.2725C11.4322 37.6674 11.6015 38.2097 11.6015 38.8992V39.1625H8.09416C8.11296 39.7267 8.26655 40.1624 8.5549 40.4695C8.84953 40.7704 9.25699 40.9209 9.77729 40.9209C10.0594 40.9209 10.3227 40.877 10.5671 40.7892C10.8179 40.7015 11.0624 40.5542 11.3006 40.3473L11.5262 40.7798C11.3257 40.9742 11.0686 41.1277 10.7552 41.2406C10.4418 41.3471 10.1221 41.4004 9.7961 41.4004ZM9.68326 37.1409C9.20684 37.1409 8.83386 37.2913 8.56431 37.5922C8.30102 37.8868 8.14744 38.2692 8.10356 38.7394H11.0843C11.0718 38.2379 10.9464 37.8461 10.7082 37.564C10.47 37.2819 10.1283 37.1409 9.68326 37.1409ZM14.6325 41.4004C14.1874 41.4004 13.805 41.3033 13.4853 41.1089C13.1656 40.9083 12.918 40.6294 12.7425 40.2721C12.5732 39.9085 12.4886 39.4885 12.4886 39.0121C12.4886 38.2912 12.6766 37.7239 13.0528 37.3101C13.4352 36.8901 13.9617 36.6801 14.6325 36.6801C14.9083 36.6801 15.181 36.7334 15.4505 36.84C15.7201 36.9465 15.9457 37.0939 16.1275 37.2819L15.9019 37.7144C15.7075 37.5264 15.5007 37.3916 15.2813 37.3101C15.0619 37.2224 14.8519 37.1785 14.6513 37.1785C14.1435 37.1785 13.7517 37.3383 13.4759 37.658C13.2063 37.9777 13.0716 38.4322 13.0716 39.0215C13.0716 39.6107 13.2063 40.0746 13.4759 40.4131C13.7517 40.7453 14.1435 40.9115 14.6513 40.9115C14.8519 40.9115 15.0619 40.8707 15.2813 40.7892C15.5007 40.7015 15.7075 40.5636 15.9019 40.3755L16.1275 40.808C15.9457 40.9898 15.7169 41.134 15.4411 41.2406C15.1716 41.3471 14.902 41.4004 14.6325 41.4004ZM18.8094 41.4004C18.3832 41.4004 18.0133 41.3064 17.6999 41.1183C17.3865 40.924 17.142 40.6513 16.9665 40.3003C16.7972 39.943 16.7126 39.523 16.7126 39.0403C16.7126 38.5639 16.7972 38.1501 16.9665 37.7991C17.142 37.4418 17.3865 37.1659 17.6999 36.9716C18.0133 36.7773 18.3832 36.6801 18.8094 36.6801C19.242 36.6801 19.615 36.7773 19.9284 36.9716C20.2418 37.1659 20.4832 37.4418 20.6524 37.7991C20.828 38.1501 20.9157 38.5639 20.9157 39.0403C20.9157 39.523 20.828 39.943 20.6524 40.3003C20.4832 40.6513 20.2418 40.924 19.9284 41.1183C19.615 41.3064 19.242 41.4004 18.8094 41.4004ZM18.8094 40.9209C19.2733 40.9209 19.6432 40.7579 19.919 40.4319C20.1948 40.0997 20.3327 39.6358 20.3327 39.0403C20.3327 38.4447 20.1948 37.984 19.919 37.658C19.6432 37.3321 19.2733 37.1691 18.8094 37.1691C18.3456 37.1691 17.9757 37.3321 17.6999 37.658C17.4303 37.984 17.2956 38.4447 17.2956 39.0403C17.2956 39.6358 17.4303 40.0997 17.6999 40.4319C17.9757 40.7579 18.3456 40.9209 18.8094 40.9209ZM22.1369 41.3252V36.7647H22.7011V37.5828C22.8516 37.2819 23.0678 37.0562 23.3499 36.9058C23.632 36.7553 23.9454 36.6801 24.2902 36.6801C25.3747 36.6801 25.9169 37.2694 25.9169 38.4479V41.3252H25.3433V38.4949C25.3433 38.0436 25.2525 37.7113 25.0707 37.4982C24.8889 37.285 24.6005 37.1785 24.2056 37.1785C23.7542 37.1785 23.3907 37.3195 23.1148 37.6016C22.8453 37.8774 22.7105 38.2504 22.7105 38.7206V41.3252H22.1369ZM30.7272 43.0177L30.7272 40.4695C30.5893 40.7579 30.3793 40.9867 30.0972 41.1559C29.8214 41.3189 29.5017 41.4004 29.1381 41.4004C28.7244 41.4004 28.3639 41.3064 28.0568 41.1183C27.7559 40.924 27.5239 40.6513 27.3609 40.3003C27.198 39.943 27.1165 39.523 27.1165 39.0403C27.1165 38.5576 27.198 38.1407 27.3609 37.7897C27.5302 37.4386 27.7653 37.1659 28.0662 36.9716C28.3671 36.7773 28.7244 36.6801 29.1381 36.6801C29.508 36.6801 29.8308 36.7647 30.1066 36.934C30.3887 37.1033 30.5987 37.3352 30.7366 37.6298V36.7647H31.3008L31.3008 43.0177H30.7272ZM29.2133 40.9209C29.6772 40.9209 30.0471 40.7579 30.3229 40.4319C30.5987 40.0997 30.7366 39.6358 30.7366 39.0403C30.7366 38.4447 30.5987 37.984 30.3229 37.658C30.0471 37.3321 29.6772 37.1691 29.2133 37.1691C28.7495 37.1691 28.3796 37.3321 28.1038 37.658C27.8342 37.984 27.6995 38.4447 27.6995 39.0403C27.6995 39.6358 27.8342 40.0997 28.1038 40.4319C28.3796 40.7579 28.7495 40.9209 29.2133 40.9209ZM34.415 41.4004C33.3305 41.4004 32.7883 40.8112 32.7883 39.6327V36.7647H33.3619V39.6044C33.3619 40.0495 33.4528 40.3786 33.6346 40.5918C33.8164 40.8049 34.1016 40.9115 34.4902 40.9115C34.9102 40.9115 35.2519 40.7704 35.5152 40.4883C35.7847 40.2062 35.9195 39.8301 35.9195 39.36V36.7647H36.4931V41.3252H35.9383V40.5165C35.7879 40.8049 35.5779 41.0243 35.3083 41.1747C35.045 41.3252 34.7473 41.4004 34.415 41.4004ZM37.9104 35.5612V34.8371H38.6815V35.5612H37.9104ZM38.0045 41.3252V36.7647H38.578V41.3252H38.0045ZM41.5746 41.4004C41.2361 41.4004 40.9101 41.3503 40.5967 41.25C40.2895 41.1497 40.0356 41.0055 39.835 40.8174L40.0419 40.3943C40.2738 40.5824 40.5215 40.7203 40.7847 40.808C41.048 40.8895 41.3176 40.9303 41.5934 40.9303C41.9821 40.9303 42.2735 40.8613 42.4679 40.7234C42.6685 40.5792 42.7688 40.3818 42.7688 40.131C42.7688 39.9367 42.7029 39.7831 42.5713 39.6703C42.4397 39.5574 42.2328 39.4665 41.9507 39.3976L41.1326 39.2095C40.3616 39.034 39.9761 38.6359 39.9761 38.0153C39.9761 37.6142 40.1328 37.2913 40.4462 37.0468C40.7597 36.8024 41.1734 36.6801 41.6874 36.6801C42.0009 36.6801 42.2955 36.7334 42.5713 36.84C42.8471 36.9403 43.0728 37.0876 43.2483 37.2819L43.0226 37.705C42.8409 37.5233 42.634 37.3885 42.4021 37.3007C42.1701 37.2067 41.9288 37.1597 41.678 37.1597C41.3144 37.1597 41.0323 37.2349 40.8318 37.3853C40.6374 37.5358 40.5403 37.7395 40.5403 37.9965C40.5403 38.1909 40.5998 38.3476 40.7189 38.4667C40.838 38.5858 41.0323 38.6767 41.3019 38.7394L42.12 38.9274C42.5274 39.0215 42.8315 39.1625 43.0321 39.3506C43.2326 39.5324 43.3329 39.78 43.3329 40.0934C43.3329 40.5009 43.1731 40.8206 42.8534 41.0525C42.5337 41.2844 42.1074 41.4004 41.5746 41.4004ZM46.254 41.4004C45.7463 41.4004 45.3639 41.2625 45.1069 40.9867C44.8561 40.7109 44.7308 40.3159 44.7308 39.8019V37.2255H43.8281V36.7647H44.7308V35.3543H45.3043V36.7647H46.7806V37.2255H45.3043V39.7267C45.3043 40.1091 45.3827 40.4006 45.5394 40.6012C45.6961 40.8018 45.9563 40.9021 46.3199 40.9021C46.4264 40.9021 46.5299 40.8895 46.6302 40.8644C46.7305 40.8394 46.8182 40.8112 46.8934 40.7798L47.0063 41.2312C46.9373 41.275 46.8276 41.3127 46.6772 41.344C46.5267 41.3816 46.3857 41.4004 46.254 41.4004ZM49.0934 41.4004C48.7862 41.4004 48.5104 41.3409 48.2659 41.2218C48.0277 41.1027 47.8365 40.9397 47.6923 40.7328C47.5544 40.5259 47.4855 40.294 47.4855 40.037C47.4855 39.6985 47.5701 39.4352 47.7394 39.2471C47.9086 39.0528 48.1938 38.9149 48.595 38.8334C48.9962 38.7519 49.5479 38.7112 50.2499 38.7112H50.5414V38.3727C50.5414 37.9527 50.4568 37.6486 50.2876 37.4606C50.1183 37.2662 49.8488 37.1691 49.4789 37.1691C49.2031 37.1691 48.9367 37.2098 48.6796 37.2913C48.4289 37.3728 48.1688 37.5013 47.8992 37.6768L47.6735 37.2349C47.9117 37.0656 48.1938 36.9309 48.5198 36.8306C48.8458 36.7303 49.1623 36.6801 49.4695 36.6801C50.0211 36.6801 50.4286 36.8212 50.6919 37.1033C50.9614 37.3853 51.0962 37.8179 51.0962 38.4009V41.3252H50.5508V40.5071C50.4255 40.7892 50.2343 41.0086 49.9773 41.1653C49.7265 41.3221 49.4319 41.4004 49.0934 41.4004ZM49.1686 40.9397C49.4382 40.9397 49.6732 40.877 49.8738 40.7516C50.0807 40.62 50.2437 40.4413 50.3628 40.2156C50.4819 39.99 50.5414 39.733 50.5414 39.4446V39.1343H50.2594C49.6952 39.1343 49.2532 39.1594 48.9335 39.2095C48.6201 39.2597 48.4007 39.3474 48.2753 39.4728C48.1499 39.5982 48.0873 39.7706 48.0873 39.99C48.0873 40.2721 48.1844 40.5009 48.3788 40.6764C48.5731 40.8519 48.8364 40.9397 49.1686 40.9397Z" fill="white"/>
<g clip-path="url(#clip0_74_391)">
<path d="M24.0071 26.6504C27.4549 26.6504 30.7615 25.2808 33.1995 22.8428C35.6374 20.4048 37.0071 17.0982 37.0071 13.6504C37.0071 10.2026 35.6374 6.89598 33.1995 4.458C30.7615 2.02003 27.4549 0.650391 24.0071 0.650391C20.5593 0.650391 17.2527 2.02003 14.8147 4.458C12.3767 6.89598 11.0071 10.2026 11.0071 13.6504C11.0071 17.0982 12.3767 20.4048 14.8147 22.8428C17.2527 25.2808 20.5593 26.6504 24.0071 26.6504ZM26.5817 17.1594L19.254 19.9777C18.2688 20.3586 17.2989 19.3887 17.6797 18.4035L20.4981 11.0758C20.6657 10.6441 21.0008 10.309 21.4325 10.1414L28.7602 7.32305C29.7454 6.94219 30.7153 7.91211 30.3344 8.89727L27.5161 16.225C27.3536 16.6566 27.0133 16.9918 26.5817 17.1594ZM25.6321 13.6504C25.6321 13.2194 25.4609 12.8061 25.1561 12.5013C24.8514 12.1966 24.4381 12.0254 24.0071 12.0254C23.5761 12.0254 23.1628 12.1966 22.858 12.5013C22.5533 12.8061 22.3821 13.2194 22.3821 13.6504C22.3821 14.0814 22.5533 14.4947 22.858 14.7994C23.1628 15.1042 23.5761 15.2754 24.0071 15.2754C24.4381 15.2754 24.8514 15.1042 25.1561 14.7994C25.4609 14.4947 25.6321 14.0814 25.6321 13.6504Z" fill="#FFF8F8"/>
</g>
<defs>
<clipPath id="clip0_74_391">
<rect width="26" height="26" fill="white" transform="translate(11.0071 0.650391)"/>
</clipPath>
</defs>
</svg>
